<?xml version="1.0" encoding="utf-8"?>
<!-- Generator: Adobe Illustrator 18.1.1, SVG Export Plug-In . SVG Version: 6.00 Build 0)  -->
<svg version="1.1" id="Layer_1" xmlns="http://www.w3.org/2000/svg" xmlns:xlink="http://www.w3.org/1999/xlink" x="0px" y="0px"
	 viewBox="0 0 99.2 70.9" enable-background="new 0 0 99.2 70.9" xml:space="preserve">
<path fill="#FFFFFF" d="M91,2.7H8.8c-3,0-5.5,2.5-5.5,5.5v36c0,3,2.5,5.5,5.5,5.5h4.6l3.2,7.8L21,68l4.3-10.5l3.2-7.8H91
	c3,0,5.5-2.5,5.5-5.5v-36C96.5,5.2,94,2.7,91,2.7z"/>
<g>
	<g>
		<g>
			<path fill-rule="evenodd" clip-rule="evenodd" fill="#EB2227" d="M89.7,17.2C93.5,9.9,83.2,5.8,82,20c-0.5,1-1.9,2.2-1.9,2.1
				c0-0.5-0.9-1-1.4-0.7c-3,1.3-5.6,9.3-1.2,8.4c0.8-0.2,1.9-1,2.5-2.2c0.4-0.7,0.6-1.3,0.8-2.1c0.2-1.3-0.2-2.6-0.4-3.1
				c0.6-0.5,1.1-0.9,1.5-1.1c0,0.5-0.1,1.1-0.1,1.6c-0.1,2.1-0.2,4.2-0.3,6.4c0.1,0,0.2,0.1,0.2,0.1c2.4-0.8,1.8-1.4,2-3.4
				c0.1-1.9,0.2-3.7,0.2-5.6c0-0.1,0.1-0.3,0.1-0.4c0.4-2.9,0.5-7.7,3.1-8.8c4.1,1.3-4.1,8.7-2.2,10.5c5.5,6.7-3.6,5.5-2,11.4
				c0.2,0,0.3,0.1,0.5,0.1c5.8-6.1,7.8-6.2,2.4-12.1C86.1,19.4,88.6,18.1,89.7,17.2z M79.8,25.3c0,1.3-1.7,3.3-2.4,1.8
				c-0.7-1.5,0.8-3.7,1.7-4.1C79.8,22.6,80,24,79.8,25.3z M74,22.8c-0.3-0.3-0.8-0.3-1.3-0.1c-0.1,0.1-1.8,3.3-2.9,3.3
				c0-0.7,0.3-1.6,0.1-2.3c-0.4-0.5-1.7-0.2-2-0.1c0,0,0,0,0,0c-0.6,1.2-1.9,1.7-1.9,1.7c0-0.5-0.9-1.1-1.4-0.9
				c-2.3,0.5-4.6,4.6-4,6.7c0,0-0.1,0-0.1,0c-0.2,0-0.4,0.2-0.6,0.5c-0.2,0.3-0.6,0.5-1.1,0.8c-1.2,0.5-2.4,0.6-2.9-0.6l2.6-1.8
				c0.9-0.6,2-1.8,2.2-2.9c0.3-1.6-0.7-1.4-2-1.3c-2.4,0.3-4.3,3.1-4.7,5.2c-0.4,2.2,1.4,3.4,3.5,3.1c0.6-0.1,1.3-0.3,2.1-0.7
				c0.8-0.5,1.2-0.9,1.4-1.5c0.3,0.4,0.9,0.7,1.7,0.7c0.8-0.1,2-0.7,2.7-1.7c0.4-0.6,0.7-1.2,1-1.9c0.3-1.2,0-2.6-0.1-3.1
				c0.6-0.4,1.1-0.6,1.4-0.7c0,0.4-0.1,0.8-0.2,1.9c0,0.8-0.6,4.1-0.5,4c0.2,0.5,1.3,0.5,1.9,0.3c0.5-1.6,0.4-2.5,0.9-4.1
				c0.5,0.3,2-0.3,2.6-1c-0.3,2.5,0.1,7.2,3,2.8C73.2,28,74.5,25.5,74,22.8z M60.1,27.2c-1.4,1.3-2.5,2.5-4.2,3.5
				C56.5,29.1,58.5,25.5,60.1,27.2z M65.5,28.4c-0.1,1.3-2,2.9-2.5,1.3c-0.6-1.6,1.1-3.5,2.1-3.8C65.7,25.8,65.8,27.2,65.5,28.4z
				 M53.1,14.6c0-0.6,0.1-1.1-0.7-1.1c-0.4,0.1-0.7,0.3-0.9,0.7c-3.1,9.8-9.9,21.2-15,27.4c-1.6,1.4-0.9,2.4-0.6,2.2
				c5-1.4,14.3-22,14.5-21.9c-0.4,5.1-0.2,10.7,0.2,16c0.2,0.2,2.2,0,2.9-1.4c0.3-0.5,0.3-1.7,0.1-2.8C52.9,25.5,53,21.9,53.1,14.6z
				"/>
		</g>
	</g>
	<g>
		
			<radialGradient id="SVGID_1_" cx="-23.9171" cy="130.6764" r="1.4409" gradientTransform="matrix(0.975 0 0 0.975 36.8396 -96.5914)" gradientUnits="userSpaceOnUse">
			<stop  offset="0" style="stop-color:#FFFFFF"/>
			<stop  offset="0.2037" style="stop-color:#FEF8F6"/>
			<stop  offset="0.4704" style="stop-color:#FCEAE6"/>
			<stop  offset="0.7709" style="stop-color:#F9D4D0"/>
			<stop  offset="1" style="stop-color:#F6BFBB"/>
		</radialGradient>
		<path fill-rule="evenodd" clip-rule="evenodd" fill="url(#SVGID_1_)" d="M14.2,29.3c0,0-1.8,0.2-1.9,1.1c-0.1,1,1.7,2.3,2.5,1.9
			L14.2,29.3z"/>
		
			<radialGradient id="SVGID_2_" cx="-6.6146" cy="130.2601" r="3.0851" gradientTransform="matrix(0.975 0 0 0.975 36.8396 -96.5914)" gradientUnits="userSpaceOnUse">
			<stop  offset="0" style="stop-color:#FFFFFF"/>
			<stop  offset="0.2037" style="stop-color:#FEF8F6"/>
			<stop  offset="0.4704" style="stop-color:#FCEAE6"/>
			<stop  offset="0.7709" style="stop-color:#F9D4D0"/>
			<stop  offset="1" style="stop-color:#F6BFBB"/>
		</radialGradient>
		<path fill="url(#SVGID_2_)" d="M30.1,27.6c0,0,0.8,1.7,1.3,2.5c0.5,0.8,1.7,0.5,2.2,0.7c-0.9,0.8-4.1,3.2-5.5,2.3
			c-1.4-0.9-0.7-2.3-0.3-2.8C28.2,29.7,30.1,27.6,30.1,27.6z"/>
		
			<radialGradient id="SVGID_3_" cx="-15.8615" cy="121.1674" r="6.7154" gradientTransform="matrix(0.975 0 0 0.975 36.8396 -96.5914)" gradientUnits="userSpaceOnUse">
			<stop  offset="0.2865" style="stop-color:#FFFFFF"/>
			<stop  offset="0.4919" style="stop-color:#F6F6F6"/>
			<stop  offset="0.7603" style="stop-color:#E6E5E7"/>
			<stop  offset="1" style="stop-color:#D2D2D6"/>
		</radialGradient>
		<path fill-rule="evenodd" clip-rule="evenodd" fill="url(#SVGID_3_)" d="M19.7,15.5c0,0,1.1,2,8.8,0.2c-0.2,1.6-0.7,10.3-1.1,11.9
			c-1-0.1-5.7-2.9-13-0.8c0.2-1.6-0.3-1.6,0.9-4.5C16.5,19.4,19.7,15.5,19.7,15.5z"/>
		<linearGradient id="SVGID_4_" gradientUnits="userSpaceOnUse" x1="25.8555" y1="23.6193" x2="35.7315" y2="23.6193">
			<stop  offset="0" style="stop-color:#EB2227"/>
			<stop  offset="0.3853" style="stop-color:#C11F24"/>
			<stop  offset="0.7599" style="stop-color:#A61D21"/>
			<stop  offset="1" style="stop-color:#9D1C20"/>
		</linearGradient>
		<path fill-rule="evenodd" clip-rule="evenodd" fill="url(#SVGID_4_)" d="M28.1,16c0,0-3.9,2.9-1.5,7.6c0.5,2.3,0.3,5.9,0.6,6.8
			c0,0,1.2-1.5,2.5-2.5c0.7,1.2,1.2,3.3,3.2,3.3c2.2-2.5,3.7-4.4,2.1-8.3C34.5,21.3,32.3,17.4,28.1,16z"/>
		<linearGradient id="SVGID_5_" gradientUnits="userSpaceOnUse" x1="12.1028" y1="22.7385" x2="19.1303" y2="22.4421">
			<stop  offset="0" style="stop-color:#EB2227"/>
			<stop  offset="0.3853" style="stop-color:#C11F24"/>
			<stop  offset="0.7599" style="stop-color:#A61D21"/>
			<stop  offset="1" style="stop-color:#9D1C20"/>
		</linearGradient>
		<path fill-rule="evenodd" clip-rule="evenodd" fill="url(#SVGID_5_)" d="M19.7,15.7c0,0,0.3,0.4-1.9,2.4
			c-1.1,1.1-4.1,6.1-3.7,11.4c-0.4,0-0.8,0-0.8,0s-1.9-2.7-2.2-4.2c-0.3-1.5,0.5-5.7,4.4-7.7C18.7,15.7,19.5,15.5,19.7,15.7z"/>
		<linearGradient id="SVGID_6_" gradientUnits="userSpaceOnUse" x1="29.7954" y1="41.7194" x2="21.826" y2="41.7194">
			<stop  offset="0" style="stop-color:#FFFFFF"/>
			<stop  offset="8.236289e-003" style="stop-color:#F5F5F4"/>
			<stop  offset="0.1633" style="stop-color:#A19E9E"/>
			<stop  offset="0.3179" style="stop-color:#696666"/>
			<stop  offset="0.4686" style="stop-color:#454242"/>
			<stop  offset="0.6146" style="stop-color:#2B2A29"/>
			<stop  offset="0.7546" style="stop-color:#171717"/>
			<stop  offset="0.8859" style="stop-color:#070707"/>
			<stop  offset="1" style="stop-color:#010101"/>
		</linearGradient>
		<path fill-rule="evenodd" clip-rule="evenodd" fill="url(#SVGID_6_)" d="M21.9,40.3c0,0,0.2,0.6,0,1.8c0.5,0.8,0.7,1,2.4,1.3
			c1.7,0.3,4.6,0.5,5.3-0.7c0.7-1.3,0.2-1.7-0.4-2c-0.6-0.4-2-1-2-1S24.6,40.5,21.9,40.3z"/>
		<linearGradient id="SVGID_7_" gradientUnits="userSpaceOnUse" x1="14.3027" y1="41.7721" x2="22.0148" y2="41.7721">
			<stop  offset="0" style="stop-color:#FFFFFF"/>
			<stop  offset="8.236289e-003" style="stop-color:#F5F5F4"/>
			<stop  offset="0.1633" style="stop-color:#A19E9E"/>
			<stop  offset="0.3179" style="stop-color:#696666"/>
			<stop  offset="0.4686" style="stop-color:#454242"/>
			<stop  offset="0.6146" style="stop-color:#2B2A29"/>
			<stop  offset="0.7546" style="stop-color:#171717"/>
			<stop  offset="0.8859" style="stop-color:#070707"/>
			<stop  offset="1" style="stop-color:#010101"/>
		</linearGradient>
		<path fill-rule="evenodd" clip-rule="evenodd" fill="url(#SVGID_7_)" d="M21.9,40.3c0,0,0.3,1.3-0.4,2.2c-0.8,0.9-2.6,1.6-4,1.1
			c-1.4-0.5-3.4-1.4-3.2-2.5c0.1-1.1,0.9-1.6,2.1-1.1c1,0.4,2.5,0.5,3.6,0.1C21.1,39.8,21.9,40.3,21.9,40.3z"/>
		<linearGradient id="SVGID_8_" gradientUnits="userSpaceOnUse" x1="16.4258" y1="33.5873" x2="28.4828" y2="33.0787">
			<stop  offset="5.617980e-003" style="stop-color:#D72027"/>
			<stop  offset="0.206" style="stop-color:#E32227"/>
			<stop  offset="0.3876" style="stop-color:#EB2227"/>
			<stop  offset="0.4897" style="stop-color:#E32227"/>
			<stop  offset="0.594" style="stop-color:#D22126"/>
			<stop  offset="0.699" style="stop-color:#B81F23"/>
			<stop  offset="0.7865" style="stop-color:#9D1C20"/>
		</linearGradient>
		<path fill-rule="evenodd" clip-rule="evenodd" fill="url(#SVGID_8_)" d="M14.3,26.5c0,0,7.8-2.7,12.6,0.9c0.2,0.8,0.3,2.6,0.5,3.1
			c-0.2,1.1-1.3,3,2.6,2.5c-1.1,2.5-3,5.7-2.6,6.7c-0.8,0.6-3,2.1-4.8,1c-1.8-1.1-3.8,0.3-5.5-0.5c0.7-1.2,0.7-1.9,0.1-2.8
			C16.5,36.5,13.5,32.3,14.3,26.5z"/>
		
			<radialGradient id="SVGID_9_" cx="-12.5999" cy="110.9906" r="5.6484" gradientTransform="matrix(0.975 0 0 0.975 36.8396 -96.5914)" gradientUnits="userSpaceOnUse">
			<stop  offset="0" style="stop-color:#FFFFFF"/>
			<stop  offset="0.2037" style="stop-color:#FEF8F6"/>
			<stop  offset="0.4704" style="stop-color:#FCEAE6"/>
			<stop  offset="0.7709" style="stop-color:#F9D4D0"/>
			<stop  offset="1" style="stop-color:#F6BFBB"/>
		</radialGradient>
		<path fill-rule="evenodd" clip-rule="evenodd" fill="url(#SVGID_9_)" d="M19.7,15.7c0,0,0.9,0.8,2.2,1.2c1.6-0.1,6.7-0.9,6.7-0.9
			s3.2-5.8,0.9-8.1c-2.3-2.3-5.8-2.1-8.4,2c-1.6,0.1-3.5,0.7-1.5,3.5C19.4,14.7,19.5,15.5,19.7,15.7z"/>
		<path fill-rule="evenodd" clip-rule="evenodd" fill="#010101" d="M34.9,21.3c-2-3.4-5.9-5.5-5.9-5.5s0.9-2.2,1.5-3.6
			c0.5-1.5,0.4-4.4-1.2-5.4C25,4,21.9,8.1,20.8,9.6c-1.5-0.2-2.2,0.5-2.4,1c-0.6,1.8,0.9,2.9,0.9,2.9s-0.1,0.8-0.2,1.8
			c-1.2,0.4-5.4,2.6-7,4.5c-3.1,4.5-1.2,6.8,0.6,9.6c-2.6,3.1,1.7,3.2,1.7,3.2c0.2,1.1,2.6,5.7,2.8,5.9c0.2,0.3-0.2,0.7-0.5,1.2
			c-0.8-0.4-2.1-0.5-2.8,0.5c-1,2.5,2,3.4,4.1,3.7c2.1,0.3,3.4-0.4,4-1c0.4,1.1,3.3,1.3,5,1.3c1.7,0,3.6-0.5,3.7-1.9
			c0.1-1.4-1.5-2.1-2.1-2.1c-0.6-0.1-0.8-0.7-0.6-1.4c0.8-1.1,2.2-4.1,2.9-5.8c3.1-1.5,4.8-3.8,5-4.9C36.1,26.9,36.9,24.8,34.9,21.3
			z M29,33.1c0.2,0.3,0.5,0.4,0.5,0.4S27.6,38,27,38.9c-0.4,1,0.4,1.7,1,1.9c0.6,0.2,1.9,0.6,1.5,1.7c-0.4,1.1-3.3,0.9-4,0.9
			c-0.7-0.1-2.8-0.1-3.7-1.4c-0.8,0.8-3.1,2.3-6.8,0.1c-0.6-0.6-0.9-2.5,0.9-2c0.8,0.3,1.2,0.5,1.4,0.2c0.2-0.3,1.2-1.2,0.6-2.2
			c-0.7-1-3.4-4.8-3.5-9.7c0-3.2,1.2-8.1,4.8-11.7c-1.2,0.8-5.8,4.4-5.6,11.4c0.3,2.5,0.7,4.2,0.7,4.2s-3.1-1.4-0.8-2.7
			c-0.8-1.4-3-4.6-1.8-7.4c0.9-2.2,3.6-5,8-6.4c0.1-0.9,0.2-1.9,0.2-1.9s0.9,0.4,1.4,0.2c-0.8-0.3-2.4-1.3-2.2-2.8
			c0.2-1.5,2.6-1,3.5-0.2c0.1-0.7-1.2-1.3-1.2-1.3s2.6-4,6-2.9c3.4,1.1,2.8,5.7,1.4,7.7c-0.5,1-0.8,1.6-0.8,1.6s6,3.1,6.8,7.3
			C35.4,25.3,36.7,30.1,29,33.1z"/>
		<path fill-rule="evenodd" clip-rule="evenodd" fill="#010101" d="M23.7,10.9c0,0,1-2.1,2.3-0.5C24.9,10.6,23.9,10.8,23.7,10.9z"/>
		<path fill-rule="evenodd" clip-rule="evenodd" fill="#010101" d="M20.4,15.2c0,0,3.3,0.4,5-2c-0.1-0.1-0.2-0.4-0.2-0.7
			c0.5,0.4,1,1,1,1s-0.3,0-0.5-0.1c-0.5,0.6-1.6,2.6-5.4,2.4C20.3,15.7,20,15.4,20.4,15.2z"/>
		<path fill-rule="evenodd" clip-rule="evenodd" fill="#010101" d="M18.7,19.6c0,0-0.5,0-0.3-0.7c0.2-0.7,1.5-2.8,2.4-2.1
			c0.4,0.6,0.7,1.2,1.3,1.2c0.6,0,2.3-0.8,2.8-0.8c0.5,0,0.9,0.1,0.5,1.5c-0.4,1.2-1.2,2.2-2,2c-0.8-0.2-1.4-1.4-1.6-1.6
			c-0.2-0.2-0.3-0.2-0.7,0.1C20.7,19.4,19.3,19.7,18.7,19.6z"/>
		<path fill-rule="evenodd" clip-rule="evenodd" fill="#010101" d="M17.8,25.8c0,0,2.6-1.4,7.4,0.3c0.5,0.2,1,0.6,0.5,0.7
			C25.1,26.7,21.4,25.3,17.8,25.8z"/>
		<path fill-rule="evenodd" clip-rule="evenodd" fill="#010101" d="M28.9,18.7c0,0,1.9,2.8,2.5,7.7c-0.4,0.3-1,0.6-1,0.6
			S30.2,21,28.9,18.7z"/>
		<path fill-rule="evenodd" clip-rule="evenodd" fill="#231F20" d="M29.7,27.9c0,0-4.3,4.4-1.2,5.3c-0.5,0.2-1.8,0.3-1.8-1.5
			C26.7,30,29.7,27.9,29.7,27.9z"/>
		<path fill-rule="evenodd" clip-rule="evenodd" fill="#010101" d="M21.2,32.8c0,0,0.7,6.6,1.4,7.9c-0.3-0.2-0.8-0.3-1-0.4
			C21.3,39.5,20.3,34.6,21.2,32.8z"/>
		<path fill-rule="evenodd" clip-rule="evenodd" fill="#010101" d="M25.9,21.8c0,0,1.7,3.3,1.9,5.9c0,1.2-0.2,1.9-0.6,1.4
			c-0.5-0.5-0.4-2.7-0.5-3.4C26.7,25.1,26.3,22.6,25.9,21.8z"/>
	</g>
	<g>
		<path fill="#010101" d="M42.9,44.8h-0.3v-3.1l0-0.5h0.3v0.5c0.1-0.2,0.1-0.3,0.2-0.3c0.1-0.1,0.3-0.2,0.6-0.2
			c0.4,0,0.6,0.1,0.8,0.4c0.2,0.2,0.3,0.5,0.3,0.9c0,0.4-0.1,0.8-0.3,1c-0.2,0.2-0.4,0.3-0.7,0.3c-0.2,0-0.3,0-0.5-0.1
			c-0.1-0.1-0.2-0.2-0.3-0.3l0,0.2V44.8z M42.9,42.5c0,0.3,0.1,0.6,0.2,0.8c0.1,0.2,0.3,0.2,0.5,0.2c0.2,0,0.4-0.1,0.5-0.2
			c0.2-0.2,0.2-0.5,0.2-0.8c0-0.3-0.1-0.6-0.2-0.8c-0.1-0.2-0.3-0.2-0.5-0.2c-0.2,0-0.4,0.1-0.5,0.2C43,41.9,42.9,42.2,42.9,42.5z"
			/>
		<path fill="#010101" d="M47.2,42.6h-1.8c0,0.3,0.1,0.5,0.2,0.7c0.2,0.2,0.4,0.3,0.7,0.3c0.2,0,0.4-0.1,0.7-0.2v0.3
			c-0.2,0.1-0.5,0.1-0.7,0.1c-0.3,0-0.6-0.1-0.8-0.3c-0.2-0.2-0.4-0.6-0.4-1c0-0.4,0.1-0.7,0.3-0.9c0.2-0.2,0.5-0.3,0.8-0.3
			c0.4,0,0.7,0.2,0.9,0.5C47.1,42,47.2,42.2,47.2,42.6L47.2,42.6z M45.4,42.4h1.4c0-0.2,0-0.4-0.1-0.5c-0.1-0.2-0.3-0.3-0.6-0.3
			c-0.2,0-0.4,0.1-0.6,0.3C45.5,42,45.4,42.2,45.4,42.4z"/>
		<path fill="#010101" d="M47.8,41.3h0.3v1.1l1.2-1.1l0.4,0l-1.2,1.2l1.4,1.3l-0.4,0l-1.2-1.2l0,1.2h-0.3V41.3z"/>
		<path fill="#010101" d="M50.4,41.3H52v2.5h-0.3v-2.2h-1V42c0,0.1,0,0.2,0,0.2c0,0.1,0,0.2,0,0.2c0,0.5-0.1,0.9-0.2,1.1
			c-0.1,0.2-0.2,0.2-0.4,0.2c-0.1,0-0.1,0-0.2,0c-0.1,0-0.1,0-0.1,0v-0.2c0,0,0,0,0.1,0c0,0,0.1,0,0.1,0c0.1,0,0.2,0,0.2-0.1
			c0-0.1,0.1-0.1,0.1-0.2c0-0.1,0-0.2,0-0.4c0-0.2,0-0.5,0-0.9V41.3z"/>
		<path fill="#010101" d="M52.9,41.7v-0.3c0.1,0,0.2-0.1,0.3-0.1c0.1,0,0.3,0,0.4,0c0.4,0,0.6,0.1,0.8,0.4c0.1,0.1,0.1,0.3,0.1,0.6
			v1.1l0,0.5h-0.3v-0.4c-0.1,0.2-0.2,0.3-0.4,0.4c-0.1,0.1-0.3,0.1-0.4,0.1c-0.3,0-0.5-0.1-0.6-0.2c-0.1-0.1-0.2-0.3-0.2-0.5
			c0-0.3,0.1-0.5,0.3-0.6c0.2-0.2,0.6-0.2,1.1-0.2h0.2v-0.1c0-0.2,0-0.3-0.1-0.4c-0.1-0.2-0.3-0.2-0.5-0.2
			C53.3,41.5,53.1,41.6,52.9,41.7z M54.2,42.5h-0.3c-0.3,0-0.5,0-0.7,0.1c-0.2,0.1-0.3,0.2-0.3,0.5c0,0.1,0,0.3,0.1,0.3
			c0.1,0.1,0.2,0.1,0.3,0.1c0.3,0,0.4-0.1,0.6-0.2c0.1-0.2,0.2-0.4,0.2-0.6V42.5z"/>
		<path fill="#010101" d="M55.7,41.3l0.8,1.8l0.1,0.3h0l0.1-0.3l0.8-1.8h0.4v2.5h-0.3V42l0-0.4L57.5,42l-0.8,1.8l-0.3,0L55.7,42
			l-0.2-0.4l0,0.4v1.8h-0.3v-2.5H55.7z"/>
		<path fill="#010101" d="M58.7,41.3H59v1.1h1.3v-1.1h0.3v2.5h-0.3v-1.2H59v1.2h-0.3V41.3z"/>
		<path fill="#010101" d="M61.3,42.5c0-0.4,0.1-0.7,0.3-0.9c0.2-0.3,0.5-0.4,0.9-0.4c0.4,0,0.6,0.1,0.9,0.4c0.2,0.2,0.3,0.5,0.3,0.9
			s-0.1,0.7-0.3,0.9c-0.2,0.3-0.5,0.4-0.9,0.4c-0.4,0-0.6-0.1-0.9-0.4C61.4,43.2,61.3,42.9,61.3,42.5z M61.6,42.5
			c0,0.3,0.1,0.5,0.2,0.7c0.2,0.2,0.4,0.4,0.7,0.4c0.3,0,0.5-0.1,0.6-0.4c0.1-0.2,0.2-0.4,0.2-0.7c0-0.3-0.1-0.5-0.2-0.7
			c-0.2-0.2-0.4-0.4-0.7-0.4c-0.3,0-0.5,0.1-0.6,0.4C61.7,42.1,61.6,42.3,61.6,42.5z"/>
		<path fill="#010101" d="M66.1,42.6h-1.8c0,0.3,0.1,0.5,0.2,0.7c0.2,0.2,0.4,0.3,0.7,0.3c0.2,0,0.4-0.1,0.7-0.2v0.3
			c-0.2,0.1-0.5,0.1-0.7,0.1c-0.3,0-0.6-0.1-0.8-0.3c-0.2-0.2-0.4-0.6-0.4-1c0-0.4,0.1-0.7,0.3-0.9c0.2-0.2,0.5-0.3,0.8-0.3
			c0.4,0,0.7,0.2,0.9,0.5C66,42,66.1,42.2,66.1,42.6L66.1,42.6z M64.3,42.4h1.4c0-0.2,0-0.4-0.1-0.5c-0.1-0.2-0.3-0.3-0.6-0.3
			c-0.2,0-0.4,0.1-0.6,0.3C64.4,42,64.3,42.2,64.3,42.4z"/>
		<path fill="#010101" d="M68.5,41.7v-0.3c0.1,0,0.2-0.1,0.3-0.1c0.1,0,0.3,0,0.4,0c0.4,0,0.6,0.1,0.8,0.4c0.1,0.1,0.1,0.3,0.1,0.6
			v1.1l0,0.5h-0.3v-0.4c-0.1,0.2-0.2,0.3-0.4,0.4c-0.1,0.1-0.3,0.1-0.4,0.1c-0.3,0-0.5-0.1-0.6-0.2c-0.1-0.1-0.2-0.3-0.2-0.5
			c0-0.3,0.1-0.5,0.3-0.6c0.2-0.2,0.6-0.2,1.1-0.2h0.2v-0.1c0-0.2,0-0.3-0.1-0.4c-0.1-0.2-0.3-0.2-0.5-0.2
			C68.9,41.5,68.7,41.6,68.5,41.7z M69.8,42.5h-0.3c-0.3,0-0.5,0-0.7,0.1c-0.2,0.1-0.3,0.2-0.3,0.5c0,0.1,0,0.3,0.1,0.3
			c0.1,0.1,0.2,0.1,0.3,0.1c0.3,0,0.4-0.1,0.6-0.2c0.1-0.2,0.2-0.4,0.2-0.6V42.5z"/>
		<path fill="#010101" d="M70.9,41.3h1.5v0.3h-1.2v2.2h-0.3V41.3z"/>
		<path fill="#010101" d="M74.7,42.6h-1.8c0,0.3,0.1,0.5,0.2,0.7c0.2,0.2,0.4,0.3,0.7,0.3c0.2,0,0.4-0.1,0.7-0.2v0.3
			c-0.2,0.1-0.5,0.1-0.7,0.1c-0.3,0-0.6-0.1-0.8-0.3c-0.2-0.2-0.4-0.6-0.4-1c0-0.4,0.1-0.7,0.3-0.9c0.2-0.2,0.5-0.3,0.8-0.3
			c0.4,0,0.7,0.2,0.9,0.5C74.6,42,74.7,42.2,74.7,42.6L74.7,42.6z M72.9,42.4h1.4c0-0.2,0-0.4-0.1-0.5c-0.1-0.2-0.3-0.3-0.6-0.3
			c-0.2,0-0.4,0.1-0.6,0.3C73,42,72.9,42.2,72.9,42.4z"/>
		<path fill="#010101" d="M75.2,41.3h0.3v1.1h1.3v-1.1h0.3v2.5h-0.3v-1.2h-1.3v1.2h-0.3V41.3z"/>
		<path fill="#010101" d="M77.6,41.3h1.9v0.3h-0.8v2.2h-0.3v-2.2h-0.8V41.3z"/>
		<path fill="#010101" d="M81.6,41.4l0,0.3c-0.1,0-0.2-0.1-0.3-0.1c-0.1,0-0.2,0-0.3,0c-0.3,0-0.5,0.1-0.7,0.3
			c-0.2,0.2-0.2,0.4-0.2,0.7c0,0.4,0.1,0.6,0.3,0.8c0.2,0.2,0.4,0.2,0.7,0.2c0.1,0,0.2,0,0.3,0c0.1,0,0.2,0,0.3-0.1l0,0.3
			c-0.1,0-0.2,0.1-0.3,0.1c-0.1,0-0.2,0-0.3,0c-0.4,0-0.7-0.1-1-0.4c-0.2-0.2-0.3-0.5-0.3-0.9c0-0.4,0.1-0.7,0.3-0.9
			c0.2-0.2,0.5-0.4,0.9-0.4C81.2,41.3,81.4,41.3,81.6,41.4z"/>
		<path fill="#010101" d="M81.8,41.3h1.9v0.3h-0.8v2.2h-0.3v-2.2h-0.8V41.3z"/>
		<path fill="#010101" d="M84.1,41.3h1c0.3,0,0.5,0.1,0.6,0.2c0.1,0.1,0.2,0.3,0.2,0.5c0,0.2-0.1,0.4-0.3,0.5c0.1,0,0.3,0.1,0.3,0.2
			c0.1,0.1,0.1,0.2,0.1,0.4c0,0.2-0.1,0.4-0.2,0.5c-0.1,0.1-0.4,0.2-0.7,0.2h-1V41.3z M84.4,41.6v0.8h0.7c0.2,0,0.3,0,0.4-0.1
			c0.1-0.1,0.1-0.2,0.1-0.3c0-0.1,0-0.2-0.1-0.3c-0.1-0.1-0.2-0.1-0.4-0.1H84.4z M84.4,42.6v0.9h0.7c0.2,0,0.3,0,0.4-0.1
			c0.1-0.1,0.1-0.2,0.1-0.3c0-0.1,0-0.3-0.2-0.3c-0.1-0.1-0.2-0.1-0.4-0.1H84.4z"/>
		<path fill="#010101" d="M86.5,42.5c0-0.4,0.1-0.7,0.3-0.9c0.2-0.3,0.5-0.4,0.9-0.4c0.4,0,0.6,0.1,0.9,0.4c0.2,0.2,0.3,0.5,0.3,0.9
			s-0.1,0.7-0.3,0.9c-0.2,0.3-0.5,0.4-0.9,0.4c-0.4,0-0.6-0.1-0.9-0.4C86.6,43.2,86.5,42.9,86.5,42.5z M86.8,42.5
			c0,0.3,0.1,0.5,0.2,0.7c0.2,0.2,0.4,0.4,0.7,0.4c0.3,0,0.5-0.1,0.6-0.4c0.1-0.2,0.2-0.4,0.2-0.7c0-0.3-0.1-0.5-0.2-0.7
			c-0.2-0.2-0.4-0.4-0.7-0.4c-0.3,0-0.5,0.1-0.6,0.4C86.9,42.1,86.8,42.3,86.8,42.5z"/>
	</g>
</g>
</svg>
